<svg width="24" height="24" viewBox="0 0 24 24" fill="none" xmlns="http://www.w3.org/2000/svg">
<path d="M12.5308 20.4781L19.6434 13.1693C21.3909 11.3646 21.6455 8.414 19.9947 6.52814C19.5807 6.05289 19.0767 5.66938 18.5136 5.40102C17.9505 5.13267 17.34 4.98512 16.7195 4.96739C16.0991 4.94966 15.4816 5.06211 14.9048 5.29788C14.328 5.53365 13.8041 5.88778 13.365 6.33865L12.0303 7.71921L10.88 6.52814C9.12382 4.73251 6.25244 4.47083 4.41721 6.16721C3.95472 6.59264 3.58151 7.11051 3.32036 7.68916C3.05922 8.26782 2.91563 8.89511 2.89837 9.53272C2.88111 10.1703 2.99055 10.8048 3.21999 11.3975C3.44943 11.9902 3.79405 12.5286 4.23281 12.9798L11.5298 20.4781C11.663 20.6137 11.8429 20.6897 12.0303 20.6897C12.2178 20.6897 12.3977 20.6137 12.5308 20.4781Z" fill="url(#paint0_linear_4622_48)"/>
<defs>
<linearGradient id="paint0_linear_4622_48" x1="5.00012" y1="5.5" x2="22.3783" y2="16.2034" gradientUnits="userSpaceOnUse">
<stop stop-color="#45FFF4"/>
<stop offset="1" stop-color="#7000FF"/>
</linearGradient>
</defs>
</svg>
